# xmcd
#
# Track frame offsets: 
#        150
#        12575
#        38003
#        66520
#        98249
#        123003
#        143535
#        170013
#        190032
#        215724
#        235678
#
# Disc length: 3350 seconds
#
# Revision: 0
# Processed by: cddbd v1.5.2PL0 Copyright (c) Steve Scherf et al.
# Submitted via: ExactAudioCopy v1.3
#
DISCID=950d140b
DTITLE=Leroy Ellington's Sacred Hearts - Sanctified
DYEAR=2019
DGENRE=Blues, Rockin' Blues
TTITLE0=Good Time Blues
TTITLE1=Gotta' Keep Movin' On
TTITLE2=Let's Make Love
TTITLE3=What Would You Do
TTITLE4=Doghouse
TTITLE5=Family Thing
TTITLE6=Something Funky Goin' On
TTITLE7=Until We Meet Again
TTITLE8=2 Tons Of Fun
TTITLE9=Looking In The Mirror
TTITLE10=Stone Cold Bad
EXTD=
EXTT0=
EXTT1=
EXTT2=
EXTT3=
EXTT4=
EXTT5=
EXTT6=
EXTT7=
EXTT8=
EXTT9=
EXTT10=
PLAYORDER=
